{"title":"Battle For Skyark 2015 Movies DVDRip XviD AAC with Sample â˜»rDXâ˜»","uid":11890307,"size":740496348,"categoryP":"video","categoryS":"movies","magnet":"?xt=urn:btih:593e48ba241dd75d06d2113bd9fce643f0ddd438&amp;dn=Battle+For+Skyark+2015+Movies+DVDRip+XviD+AAC+with+Sample+%E2%98%BBrDX%E2%98%BB&amp;tr=udp%3A%2F%2Ftracker.openbittorrent.com%3A80&amp;tr=udp%3A%2F%2Fopen.demonii.com%3A1337&amp;tr=udp%3A%2F%2Ftracker.coppersurfer.tk%3A6969&amp;tr=udp%3A%2F%2Fexodus.desync.com%3A6969","seeders":21,"leechers":5,"uploader":"basicssom","files":2,"time":1430977401,"description":"----------------------------------------------------------------\nBattle For Skyark 2015 English Movies DVDRip XviD AAC with Sample ~ â˜»rDXâ˜»\n\nSCREEN SHOTS &amp; POSTER:\n &lt;a href=&quot;\nhttp://postimage.co.nr/2015/5/BattleForSkyark/11.html&quot; rel=&quot;nofollow&quot; target=&quot;_NEW&quot;&gt;\nhttp://postimage.co.nr/2015/5/BattleForSkyark/11.html&lt;/a&gt; &lt;a href=&quot;\nhttp://postimage.co.nr/2015/5/BattleForSkyark/1.html&quot; rel=&quot;nofollow&quot; target=&quot;_NEW&quot;&gt;\nhttp://postimage.co.nr/2015/5/BattleForSkyark/1.html&lt;/a&gt; &lt;a href=&quot;\nhttp://postimage.co.nr/2015/5/BattleForSkyark/2.html&quot; rel=&quot;nofollow&quot; target=&quot;_NEW&quot;&gt;\nhttp://postimage.co.nr/2015/5/BattleForSkyark/2.html&lt;/a&gt; &lt;a href=&quot;\nhttp://postimage.co.nr/2015/5/BattleForSkyark/3.html&quot; rel=&quot;nofollow&quot; target=&quot;_NEW&quot;&gt;\nhttp://postimage.co.nr/2015/5/BattleForSkyark/3.html&lt;/a&gt; &lt;a href=&quot;\nhttp://postimage.co.nr/2015/5/BattleForSkyark/4.html&quot; rel=&quot;nofollow&quot; target=&quot;_NEW&quot;&gt;\nhttp://postimage.co.nr/2015/5/BattleForSkyark/4.html&lt;/a&gt; &lt;a href=&quot;\nhttp://postimage.co.nr/2015/5/BattleForSkyark/5.html&quot; rel=&quot;nofollow&quot; target=&quot;_NEW&quot;&gt;\nhttp://postimage.co.nr/2015/5/BattleForSkyark/5.html&lt;/a&gt; &lt;a href=&quot;\nhttp://postimage.co.nr/2015/5/BattleForSkyark/6.html&quot; rel=&quot;nofollow&quot; target=&quot;_NEW&quot;&gt;\nhttp://postimage.co.nr/2015/5/BattleForSkyark/6.html&lt;/a&gt; &lt;a href=&quot;\nhttp://postimage.co.nr/2015/5/BattleForSkyark/7.html&quot; rel=&quot;nofollow&quot; target=&quot;_NEW&quot;&gt;\nhttp://postimage.co.nr/2015/5/BattleForSkyark/7.html&lt;/a&gt; &lt;a href=&quot;\nhttp://postimage.co.nr/2015/5/BattleForSkyark/8.html&quot; rel=&quot;nofollow&quot; target=&quot;_NEW&quot;&gt;\nhttp://postimage.co.nr/2015/5/BattleForSkyark/8.html&lt;/a&gt; &lt;a href=&quot;\nhttp://postimage.co.nr/2015/5/BattleForSkyark/9.html&quot; rel=&quot;nofollow&quot; target=&quot;_NEW&quot;&gt;\nhttp://postimage.co.nr/2015/5/BattleForSkyark/9.html&lt;/a&gt; &lt;a href=&quot;\nhttp://postimage.co.nr/2015/5/BattleForSkyark/10.html&quot; rel=&quot;nofollow&quot; target=&quot;_NEW&quot;&gt;\nhttp://postimage.co.nr/2015/5/BattleForSkyark/10.html&lt;/a&gt;\n\nFormat                                   : Matroska\nFormat version                           : Version 4 / Version 2\nFile size                                : 693 MiB\nDuration                                 : 1h 28mn\nOverall bit rate                         : 1 100 Kbps\nMovie name                               : Battle For Skyark 2015 English Movies DVDRip XviD AAC ~ rDX ~\n\nVideo\nID                                       : 1\nFormat                                   : MPEG-4 Visual\nFormat profile                           : Advanced Simple@L5\nFormat settings, BVOP                    : Yes\nFormat settings, QPel                    : No\nFormat settings, GMC                     : No warppoints\nFormat settings, Matrix                  : Default (H.263)\nCodec ID                                 : V_MS/VFW/FOURCC / XVID\nCodec ID/Hint                            : XviD\nDuration                                 : 1h 28mn\nBit rate                                 : 950 Kbps\nWidth                                    : 640 pixels\nHeight                                   : 272 pixels\nDisplay aspect ratio                     : 2.35:1\nFrame rate mode                          : Constant\nFrame rate                               : 23.976 fps\nColor space                              : YUV\nChroma subsampling                       : 4:2:0\nBit depth                                : 8 bits\nScan type                                : Progressive\nCompression mode                         : Lossy\nBits/(Pixel*Frame)                       : 0.228\nStream size                              : 599 MiB (86%)\nTitle                                    : ~ rDX ~\nWriting library                          : XviD 66\nDefault                                  : Yes\nForced                                   : No\n\nAudio\nID                                       : 2\nFormat                                   : MPEG Audio\nFormat version                           : Version 1\nFormat profile                           : Layer 3\nMode                                     : Joint stereo\nMode extension                           : MS Stereo\nCodec ID                                 : A_MPEG/L3\nCodec ID/Hint                            : MP3\nDuration                                 : 1h 28mn\nBit rate mode                            : Constant\nBit rate                                 : 128 Kbps\nChannel(s)                               : 2 channels\nSampling rate                            : 48.0 KHz\nCompression mode                         : Lossy\nStream size                              : 80.6 MiB (12%)\nTitle                                    : ~ rDX ~\nWriting library                          : LAME3.99r\nEncoding settings                        : -m j -V 4 -q 3 -lowpass 17 -b 128\nDefault                                  : Yes\nForced                                   : No","torrent":{"xt":"urn:btih:593e48ba241dd75d06d2113bd9fce643f0ddd438","amp;dn":"Battle+For+Skyark+2015+Movies+DVDRip+XviD+AAC+with+Sample+%E2%98%BBrDX%E2%98%BB","amp;tr":["udp%3A%2F%2Ftracker.openbittorrent.com%3A80","udp%3A%2F%2Fopen.demonii.com%3A1337","udp%3A%2F%2Ftracker.coppersurfer.tk%3A6969","udp%3A%2F%2Fexodus.desync.com%3A6969"],"infoHash":"593e48ba241dd75d06d2113bd9fce643f0ddd438","infoHashBuffer":{"type":"Buffer","data":[89,62,72,186,36,29,215,93,6,210,17,59,217,252,230,67,240,221,212,56]},"announce":[],"urlList":[]}}